<svg xmlns="http://www.w3.org/2000/svg" viewBox="0 0 512 512">
<defs>
<linearGradient id="bg" x1="0" y1="0" x2="1" y2="1"><stop offset="0" stop-color="#181b23"/><stop offset="1" stop-color="#05070c"/></linearGradient>
<linearGradient id="code" x1="0" y1="0" x2="1" y2="0"><stop offset="0" stop-color="#35a7ff"/><stop offset="1" stop-color="#a63cff"/></linearGradient>
</defs>
<rect x="8" y="8" width="496" height="496" rx="92" fill="url(#bg)" stroke="#555b66" stroke-width="8"/>
<path d="M105 155V357M105 155H190C245 155 274 185 274 256S245 357 190 357H105" fill="none" stroke="#fff" stroke-width="34" stroke-linecap="square" stroke-linejoin="round"/>
<path d="M314 155V357M314 155H385C431 155 452 180 452 218S431 281 385 281H314" fill="none" stroke="#fff" stroke-width="34" stroke-linecap="square" stroke-linejoin="round"/>
<path d="M145 225L115 255L145 285M180 215L164 295M183 225L213 255L183 285" fill="none" stroke="url(#code)" stroke-width="14" stroke-linecap="round" stroke-linejoin="round"/>
<rect x="181" y="407" width="150" height="16" rx="8" fill="url(#code)"/>
</svg>
